<?xml version="1.0" encoding="utf-8"?>
<!-- Generator: Adobe Illustrator 25.2.1, SVG Export Plug-In . SVG Version: 6.00 Build 0)  -->
<svg version="1.1" id="图层_1" xmlns="http://www.w3.org/2000/svg" xmlns:xlink="http://www.w3.org/1999/xlink" x="0px" y="0px"
	 viewBox="0 0 40 40" style="enable-background:new 0 0 40 40;" xml:space="preserve">
<style type="text/css">
	.st0{fill:#5ACC9B;}
	.st1{fill:#6CCBFF;}
	.st2{fill:#FFD766;}
	.st3{fill:#FF5562;}
	.st4{fill:#FFFFFF;}
</style>
<g>
	<path class="st0" d="M37.9,37.9H2.1c-1.1,0-2-0.8-2-1.7V26h39.7v10.2C39.8,37.1,38.9,37.9,37.9,37.9L37.9,37.9L37.9,37.9z"/>
	<path class="st1" d="M2.1,2.1h35.7c1.1,0,2,0.8,2,1.7V14H0.2V3.8C0.2,2.9,1.1,2.1,2.1,2.1L2.1,2.1z"/>
	<path class="st2" d="M0.2,14h39.7V26H0.2V14z"/>
	<path class="st3" d="M13.4,2.1h13.2v35.7H13.4V2.1z"/>
	<path class="st4" d="M17.2,4.1h2.6v2h-2.6V4.1L17.2,4.1z M19.8,2.1h2.6v2h-2.6V2.1L19.8,2.1z M19.8,6.1h2.6v2h-2.6
		C19.8,8.1,19.8,6.1,19.8,6.1z M17.2,8.1h2.6v2h-2.6V8.1z M19.8,10.1h2.6v2h-2.6V10.1z M17.2,12.1h2.6v2h-2.6V12.1z M19.8,14h2.6v2
		h-2.6V14z M17.2,16h2.6v2h-2.6V16z M19.8,18h2.6v2h-2.6V18z M17.2,20h2.6v2h-2.6C17.2,22,17.2,20,17.2,20z M19.8,22h2.6v2h-2.6V22z
		 M17.2,24h2.6v2h-2.6V24z M19.8,26h2.6v2h-2.6V26z M17.2,27.9h2.6v2h-2.6V27.9z M19.8,29.9h2.6v2h-2.6V29.9z M17.2,31.9h2.6v2h-2.6
		V31.9z M17.2,35.9h2.6v2h-2.6V35.9z M19.8,33.9h2.6v2h-2.6V33.9z"/>
</g>
</svg>
