<?xml version="1.0" encoding="utf-8"?>
<!-- Generator: Adobe Illustrator 25.2.1, SVG Export Plug-In . SVG Version: 6.00 Build 0)  -->
<svg version="1.1" id="图层_1" xmlns="http://www.w3.org/2000/svg" xmlns:xlink="http://www.w3.org/1999/xlink" x="0px" y="0px"
	 viewBox="0 0 200 200" style="enable-background:new 0 0 200 200;" xml:space="preserve">
<style type="text/css">
	.st0{fill:#B0EF4D;}
	.st1{fill:#6B57FE;}
	.st2{fill:#FFFFFF;}
</style>
<path class="st0" d="M150,15c8.3,0,15,6.7,15,15v15h5c7.7,0,14.2,5.9,14.9,13.6L185,60v110c0,8.3-6.7,15-15,15H50
	c-8.3,0-15-6.7-15-15v-15h-5c-8.3,0-15-6.7-15-15l0,0V30c0-8.3,6.7-15,15-15l0,0H150z"/>
<path class="st1" d="M15,45h150v95c0,8.3-6.7,15-15,15H30c-8.3,0-15-6.7-15-15V45z"/>
<path class="st2" d="M62.7,99.6h-6.1v-1.4c0-1.3-0.3-2.5-1-3.6c-0.7-1-1.8-1.5-3.3-1.5c-0.7,0-1.4,0.1-2,0.5
	c-0.5,0.3-0.9,0.7-1.3,1.2c-0.3,0.5-0.6,1.1-0.7,1.8c-0.1,0.7-0.2,1.4-0.2,2.1c0,0.8,0,1.5,0.1,2.1c0,0.5,0.2,1,0.5,1.5
	s0.6,0.8,1.1,1.1c0.6,0.4,1.2,0.7,1.9,1l4.7,1.9c1.4,0.5,2.5,1.1,3.3,1.8c0.8,0.7,1.5,1.5,2,2.4c0.4,1,0.7,2,0.9,3.3
	c0.2,1.2,0.2,2.6,0.2,4.2c0,1.8-0.2,3.5-0.5,5c-0.3,1.4-0.9,2.8-1.7,3.9c-0.9,1.1-2,2-3.3,2.6c-1.6,0.7-3.3,1-5,1
	c-1.4,0-2.8-0.3-4.1-0.8c-1.2-0.5-2.4-1.2-3.3-2.2c-0.9-0.9-1.7-2-2.2-3.2c-0.5-1.3-0.8-2.6-0.8-4V118H48v1.9c0,1.1,0.3,2.2,1,3
	c0.7,0.9,1.8,1.3,3.3,1.3c0.8,0,1.7-0.1,2.4-0.5c0.6-0.3,1-0.7,1.3-1.3c0.3-0.6,0.5-1.3,0.6-2c0.1-0.8,0.1-1.7,0.1-2.6l-0.1-2
	c0-0.3,0-0.5-0.1-0.8c0-0.6-0.2-1.2-0.5-1.7c-0.3-0.4-0.7-0.8-1.1-1.1c-0.6-0.3-1.2-0.6-1.8-0.9l-4.4-1.8c-2.6-1.1-4.4-2.5-5.3-4.3
	c-1-2.1-1.4-4.4-1.3-6.7c0-1.6,0.2-3.1,0.7-4.6s1.1-2.7,2-3.7c0.9-1.1,2-1.9,3.2-2.5c1.3-0.6,2.8-0.9,4.7-0.9c1.5,0,2.9,0.3,4.2,0.8
	c1.3,0.6,2.4,1.3,3.3,2.2c1.8,1.7,2.8,4.1,2.8,6.6C62.7,96.6,62.7,99.6,62.7,99.6z M67,130V87.3h9c3.5,0,6.2,1,8,2.9
	s2.7,4.6,2.7,8.2v20c0,4-1,6.9-2.9,8.9c-1.9,1.9-4.7,2.8-8.4,2.8H67V130z M73.1,93v31.2h2.8c1.7,0,2.9-0.4,3.7-1.3
	c0.7-0.9,1.1-2.2,1.1-4.1V98.3c0-1.7-0.3-3-1-3.9s-2-1.4-3.8-1.4H73.1z M92.2,130V87.3h6.1v19.5h0.1l8.9-19.5h6.1l-8.3,17.1L115,130
	h-6.5l-7-19l-3.3,6.2V130H92.2z M122.9,120.9c1.3,0,2.4,0.4,3.4,1.4c0.9,0.9,1.4,2,1.4,3.4c0,1.3-0.5,2.4-1.4,3.4
	c-0.9,0.8-2.1,1.3-3.4,1.3c-1.2,0-2.4-0.5-3.3-1.3c-0.9-0.9-1.4-2.1-1.4-3.4s0.5-2.5,1.4-3.4C120.4,121.4,121.6,120.9,122.9,120.9z"
	/>
</svg>
