<?xml version="1.0" encoding="utf-8"?>
<!-- Generator: Adobe Illustrator 25.2.1, SVG Export Plug-In . SVG Version: 6.00 Build 0)  -->
<svg version="1.1" id="图层_1" xmlns="http://www.w3.org/2000/svg" xmlns:xlink="http://www.w3.org/1999/xlink" x="0px" y="0px"
	 viewBox="0 0 200 200" style="enable-background:new 0 0 200 200;" xml:space="preserve">
<style type="text/css">
	.st0{fill:#FFFFFF;}
</style>
<path class="st0" d="M100,8.3C49.9,7.8,8.9,48,8.3,98.1c0.2,39,25.5,73.4,62.7,85.3c4.6,0.8,6.2-1.9,6.2-4.3v-15.3
	c-25.5,5.4-30.9-12-30.9-12c-1.7-5.5-5.3-10.1-10.2-13.2c-8.3-5.5,0.7-5.4,0.7-5.4c5.8,0.8,11,4.2,14,9.2
	c5.4,9.3,17.2,12.6,26.7,7.4c0.5-4.6,2.5-8.8,5.8-12c-20.3-2.2-41.7-9.9-41.7-44.3c-0.2-9,3.1-17.7,9.2-24.2
	c-2.8-7.7-2.5-16.2,0.9-23.7c0,0,7.7-2.4,25,9.2c15-4,30.8-4,45.8,0c17.5-11.6,25-9.2,25-9.2c3.4,7.5,3.7,16,0.9,23.7
	c6.3,6.5,9.8,15.1,9.8,24.1c0,34.5-21.5,42.1-41.7,44.3c4.5,4.3,6.8,10.5,6.2,16.7v24.6c0,2.9,1.7,5.2,6.2,4.3
	c37.1-11.9,62.3-46.3,62.5-85.2C191.1,48,150.1,7.8,100,8.3"/>
</svg>
